<?xml version="1.0" encoding="UTF-8"?>
<svg width="768px" height="159px" viewBox="0 0 768 159" version="1.1" xmlns="http://www.w3.org/2000/svg" xmlns:xlink="http://www.w3.org/1999/xlink">
    <!-- Generator: Sketch 40.3 (33839) - http://www.bohemiancoding.com/sketch -->
    <title>category-scale_lc</title>
    <desc>Created with Sketch.</desc>
    <defs></defs>
    <g id="Page-1" stroke="none" stroke-width="1" fill="none" fill-rule="evenodd">
        <g id="category-scale_lc">
            <polygon id="Fill-1" fill="#000000" points="709.64 96.305 767.183 96.305 767.183 62.424 709.64 62.424"></polygon>
            <polygon id="Fill-2" fill="#666666" points="81.118 96.314 157.441 96.314 157.441 62.109 81.118 62.109"></polygon>
            <path d="M108.718,76.004 L110.117,76.004 C111.026,76.004 111.896,75.444 111.896,73.865 C111.896,72.426 111.396,71.506 109.837,71.506 L108.718,71.506 L108.718,76.004 L108.718,76.004 Z M107.148,70.187 L110.227,70.187 C112.076,70.187 113.465,71.347 113.465,73.715 C113.465,75.784 112.406,77.323 110.227,77.323 L107.148,77.323 L107.148,70.187 L107.148,70.187 Z" id="Fill-3" fill="#FFFFFF"></path>
            <path d="M116.088,74.565 L117.937,74.565 L117.037,71.946 L117.017,71.946 L116.088,74.565 L116.088,74.565 Z M116.238,70.187 L117.847,70.187 L120.515,77.323 L118.886,77.323 L118.347,75.734 L115.678,75.734 L115.118,77.323 L113.529,77.323 L116.238,70.187 L116.238,70.187 Z" id="Fill-4" fill="#FFFFFF"></path>
            <polyline id="Fill-5" fill="#FFFFFF" points="122.001 71.506 119.862 71.506 119.862 70.187 125.709 70.187 125.709 71.506 123.57 71.506 123.57 77.323 122.001 77.323 122.001 71.506"></polyline>
            <path d="M127.601,74.565 L129.45,74.565 L128.55,71.946 L128.53,71.946 L127.601,74.565 L127.601,74.565 Z M127.751,70.187 L129.36,70.187 L132.028,77.323 L130.399,77.323 L129.86,75.734 L127.191,75.734 L126.631,77.323 L125.042,77.323 L127.751,70.187 L127.751,70.187 Z" id="Fill-6" fill="#FFFFFF"></path>
            <path d="M94.89,87.012 L96.289,87.012 C97.198,87.012 98.068,86.452 98.068,84.873 C98.068,83.434 97.568,82.514 96.009,82.514 L94.89,82.514 L94.89,87.012 L94.89,87.012 Z M93.32,81.195 L96.399,81.195 C98.248,81.195 99.637,82.354 99.637,84.723 C99.637,86.792 98.578,88.331 96.399,88.331 L93.32,88.331 L93.32,81.195 L93.32,81.195 Z" id="Fill-7" fill="#FFFFFF"></path>
            <polyline id="Fill-8" fill="#FFFFFF" points="100.73 81.195 106.068 81.195 106.068 82.514 102.3 82.514 102.3 84.043 105.758 84.043 105.758 85.263 102.3 85.263 102.3 87.012 106.147 87.012 106.147 88.331 100.73 88.331 100.73 81.195"></polyline>
            <polyline id="Fill-9" fill="#FFFFFF" points="107.21 81.195 112.228 81.195 112.228 82.514 108.78 82.514 108.78 84.164 111.768 84.164 111.768 85.383 108.78 85.383 108.78 88.331 107.21 88.331 107.21 81.195"></polyline>
            <polygon id="Fill-10" fill="#FFFFFF" points="113.14 88.331 114.709 88.331 114.709 81.195 113.14 81.195"></polygon>
            <path d="M120.847,83.594 C120.748,82.885 120.068,82.344 119.288,82.344 C117.879,82.344 117.349,83.543 117.349,84.793 C117.349,85.982 117.879,87.182 119.288,87.182 C120.248,87.182 120.788,86.521 120.907,85.582 L122.427,85.582 C122.267,87.361 121.037,88.501 119.288,88.501 C117.08,88.501 115.78,86.852 115.78,84.793 C115.78,82.674 117.08,81.025 119.288,81.025 C120.857,81.025 122.177,81.944 122.367,83.594 L120.847,83.594" id="Fill-11" fill="#FFFFFF"></path>
            <polygon id="Fill-12" fill="#FFFFFF" points="123.5 88.331 125.069 88.331 125.069 81.195 123.5 81.195"></polygon>
            <polyline id="Fill-13" fill="#FFFFFF" points="126.45 81.195 131.788 81.195 131.788 82.514 128.02 82.514 128.02 84.043 131.478 84.043 131.478 85.263 128.02 85.263 128.02 87.012 131.867 87.012 131.867 88.331 126.45 88.331 126.45 81.195"></polyline>
            <polyline id="Fill-14" fill="#FFFFFF" points="132.93 81.195 134.489 81.195 137.468 85.982 137.488 85.982 137.488 81.195 138.957 81.195 138.957 88.331 137.388 88.331 134.419 83.554 134.399 83.554 134.399 88.331 132.93 88.331 132.93 81.195"></polyline>
            <polyline id="Fill-15" fill="#FFFFFF" points="141.919 82.514 139.78 82.514 139.78 81.195 145.627 81.195 145.627 82.514 143.488 82.514 143.488 88.331 141.919 88.331 141.919 82.514"></polyline>
            <path d="M114.062,109.199 L115.461,109.199 C116.37,109.199 117.24,108.64 117.24,107.061 C117.24,105.621 116.74,104.702 115.181,104.702 L114.062,104.702 L114.062,109.199 L114.062,109.199 Z M112.492,103.383 L115.571,103.383 C117.419,103.383 118.809,104.542 118.809,106.91 C118.809,108.98 117.75,110.519 115.571,110.519 L112.492,110.519 L112.492,103.383 L112.492,103.383 Z" id="Fill-16" fill="#000000"></path>
            <path d="M121.481,109.199 L122.881,109.199 C123.79,109.199 124.66,108.64 124.66,107.061 C124.66,105.621 124.16,104.702 122.601,104.702 L121.481,104.702 L121.481,109.199 L121.481,109.199 Z M119.912,103.383 L122.991,103.383 C124.839,103.383 126.229,104.542 126.229,106.91 C126.229,108.98 125.169,110.519 122.991,110.519 L119.912,110.519 L119.912,103.383 L119.912,103.383 Z" id="Fill-17" fill="#000000"></path>
            <polygon id="Fill-18" fill="#666666" points="0 96.314 77.599 96.314 77.599 62.109 0 62.109"></polygon>
            <path d="M163.276,95.857 L767.183,95.857 M163.275,62.635 L767.183,62.635" id="Stroke-19" stroke="#000000"></path>
            <polyline id="Fill-21" fill="#FFFFFF" points="28.906 70.187 30.465 70.187 33.444 74.975 33.464 74.975 33.464 70.187 34.933 70.187 34.933 77.323 33.364 77.323 30.396 72.546 30.375 72.546 30.375 77.323 28.906 77.323 28.906 70.187"></polyline>
            <path d="M39.515,76.174 C40.924,76.174 41.454,74.975 41.454,73.785 C41.454,72.536 40.924,71.337 39.515,71.337 C38.105,71.337 37.576,72.536 37.576,73.785 C37.576,74.975 38.105,76.174 39.515,76.174 L39.515,76.174 Z M39.515,70.017 C41.724,70.017 43.023,71.666 43.023,73.785 C43.023,75.844 41.724,77.493 39.515,77.493 C37.306,77.493 36.007,75.844 36.007,73.785 C36.007,71.666 37.306,70.017 39.515,70.017 L39.515,70.017 Z" id="Fill-22" fill="#FFFFFF"></path>
            <polyline id="Fill-23" fill="#FFFFFF" points="45.524 71.506 43.386 71.506 43.386 70.187 49.232 70.187 49.232 71.506 47.094 71.506 47.094 77.323 45.524 77.323 45.524 71.506"></polyline>
            <polyline id="Fill-24" fill="#FFFFFF" points="10.234 81.195 15.572 81.195 15.572 82.514 11.804 82.514 11.804 84.043 15.262 84.043 15.262 85.263 11.804 85.263 11.804 87.012 15.651 87.012 15.651 88.331 10.234 88.331 10.234 81.195"></polyline>
            <polyline id="Fill-25" fill="#FFFFFF" points="20.203 88.331 18.434 88.331 16.115 81.195 17.734 81.195 19.323 86.213 19.343 86.213 20.952 81.195 22.571 81.195 20.203 88.331"></polyline>
            <path d="M24.549,85.572 L26.398,85.572 L25.499,82.954 L25.478,82.954 L24.549,85.572 L24.549,85.572 Z M24.699,81.195 L26.308,81.195 L28.977,88.331 L27.348,88.331 L26.808,86.742 L24.14,86.742 L23.58,88.331 L21.991,88.331 L24.699,81.195 L24.699,81.195 Z" id="Fill-26" fill="#FFFFFF"></path>
            <polyline id="Fill-27" fill="#FFFFFF" points="29.84 81.195 31.409 81.195 31.409 87.012 34.887 87.012 34.887 88.331 29.84 88.331 29.84 81.195"></polyline>
            <path d="M41.471,85.633 C41.471,87.562 40.331,88.501 38.422,88.501 C36.503,88.501 35.384,87.571 35.384,85.633 L35.384,81.195 L36.954,81.195 L36.954,85.633 C36.954,86.412 37.153,87.182 38.422,87.182 C39.542,87.182 39.902,86.691 39.902,85.633 L39.902,81.195 L41.471,81.195 L41.471,85.633" id="Fill-28" fill="#FFFFFF"></path>
            <path d="M44.373,85.572 L46.222,85.572 L45.323,82.954 L45.303,82.954 L44.373,85.572 L44.373,85.572 Z M44.523,81.195 L46.132,81.195 L48.801,88.331 L47.172,88.331 L46.632,86.742 L43.964,86.742 L43.404,88.331 L41.815,88.331 L44.523,81.195 L44.523,81.195 Z" id="Fill-29" fill="#FFFFFF"></path>
            <polyline id="Fill-30" fill="#FFFFFF" points="50.282 82.514 48.144 82.514 48.144 81.195 53.99 81.195 53.99 82.514 51.852 82.514 51.852 88.331 50.282 88.331 50.282 82.514"></polyline>
            <polyline id="Fill-31" fill="#FFFFFF" points="54.763 81.195 60.101 81.195 60.101 82.514 56.332 82.514 56.332 84.043 59.79 84.043 59.79 85.263 56.332 85.263 56.332 87.012 60.18 87.012 60.18 88.331 54.763 88.331 54.763 81.195"></polyline>
            <path d="M62.89,87.012 L64.289,87.012 C65.198,87.012 66.068,86.452 66.068,84.873 C66.068,83.434 65.568,82.514 64.009,82.514 L62.89,82.514 L62.89,87.012 L62.89,87.012 Z M61.32,81.195 L64.399,81.195 C66.248,81.195 67.637,82.354 67.637,84.723 C67.637,86.792 66.578,88.331 64.399,88.331 L61.32,88.331 L61.32,81.195 L61.32,81.195 Z" id="Fill-32" fill="#FFFFFF"></path>
            <polyline id="Fill-33" fill="#000000" points="32.523 103.383 34.082 103.383 37.061 108.17 37.081 108.17 37.081 103.383 38.55 103.383 38.55 110.519 36.981 110.519 34.013 105.741 33.993 105.741 33.993 110.519 32.523 110.519 32.523 103.383"></polyline>
            <polyline id="Fill-34" fill="#000000" points="39.963 103.383 45.301 103.383 45.301 104.702 41.533 104.702 41.533 106.231 44.991 106.231 44.991 107.45 41.533 107.45 41.533 109.199 45.38 109.199 45.38 110.519 39.963 110.519 39.963 103.383"></polyline>
            <polyline id="Fill-35" fill="#000000" points="344.602 70.187 346.161 70.187 349.139 74.975 349.159 74.975 349.159 70.187 350.628 70.187 350.628 77.323 349.059 77.323 346.091 72.546 346.071 72.546 346.071 77.323 344.602 77.323 344.602 70.187"></polyline>
            <polyline id="Fill-36" fill="#000000" points="352.042 70.187 357.379 70.187 357.379 71.506 353.611 71.506 353.611 73.036 357.069 73.036 357.069 74.255 353.611 74.255 353.611 76.004 357.458 76.004 357.458 77.323 352.042 77.323 352.042 70.187"></polyline>
            <path d="M360.323,74.565 L362.171,74.565 L361.272,71.946 L361.252,71.946 L360.323,74.565 L360.323,74.565 Z M360.473,70.187 L362.082,70.187 L364.75,77.323 L363.121,77.323 L362.582,75.734 L359.913,75.734 L359.353,77.323 L357.764,77.323 L360.473,70.187 L360.473,70.187 Z" id="Fill-37" fill="#000000"></path>
            <path d="M366.783,73.416 L368.502,73.416 C369.201,73.416 369.581,73.116 369.581,72.396 C369.581,71.707 369.201,71.406 368.502,71.406 L366.783,71.406 L366.783,73.416 L366.783,73.416 Z M365.213,70.187 L369.062,70.187 C370.341,70.187 371.15,71.077 371.15,72.156 C371.15,72.996 370.811,73.625 370.021,73.945 L370.021,73.965 C370.791,74.165 371.01,74.915 371.061,75.634 C371.09,76.084 371.08,76.923 371.36,77.323 L369.791,77.323 C369.601,76.874 369.621,76.184 369.541,75.614 C369.431,74.865 369.142,74.535 368.352,74.535 L366.783,74.535 L366.783,77.323 L365.213,77.323 L365.213,70.187 L365.213,70.187 Z" id="Fill-38" fill="#000000"></path>
            <polyline id="Fill-39" fill="#000000" points="326.524 82.514 324.386 82.514 324.386 81.195 330.232 81.195 330.232 82.514 328.094 82.514 328.094 88.331 326.524 88.331 326.524 82.514"></polyline>
            <polyline id="Fill-40" fill="#000000" points="331.005 81.195 332.575 81.195 332.575 83.934 335.463 83.934 335.463 81.195 337.032 81.195 337.032 88.331 335.463 88.331 335.463 85.253 332.575 85.253 332.575 88.331 331.005 88.331 331.005 81.195"></polyline>
            <path d="M340.007,84.424 L341.726,84.424 C342.425,84.424 342.805,84.123 342.805,83.404 C342.805,82.715 342.425,82.414 341.726,82.414 L340.007,82.414 L340.007,84.424 L340.007,84.424 Z M338.438,81.195 L342.286,81.195 C343.565,81.195 344.375,82.084 344.375,83.164 C344.375,84.004 344.035,84.633 343.245,84.953 L343.245,84.973 C344.015,85.173 344.234,85.922 344.285,86.643 C344.314,87.092 344.305,87.932 344.584,88.331 L343.015,88.331 C342.825,87.881 342.845,87.191 342.765,86.622 C342.655,85.873 342.366,85.543 341.576,85.543 L340.007,85.543 L340.007,88.331 L338.438,88.331 L338.438,81.195 L338.438,81.195 Z" id="Fill-41" fill="#000000"></path>
            <polyline id="Fill-42" fill="#000000" points="345.458 81.195 350.795 81.195 350.795 82.514 347.027 82.514 347.027 84.043 350.485 84.043 350.485 85.263 347.027 85.263 347.027 87.012 350.875 87.012 350.875 88.331 345.458 88.331 345.458 81.195"></polyline>
            <path d="M353.752,85.572 L355.601,85.572 L354.702,82.954 L354.682,82.954 L353.752,85.572 L353.752,85.572 Z M353.902,81.195 L355.511,81.195 L358.18,88.331 L356.551,88.331 L356.011,86.742 L353.343,86.742 L352.783,88.331 L351.194,88.331 L353.902,81.195 L353.902,81.195 Z" id="Fill-43" fill="#000000"></path>
            <polyline id="Fill-44" fill="#000000" points="359.662 82.514 357.523 82.514 357.523 81.195 363.37 81.195 363.37 82.514 361.231 82.514 361.231 88.331 359.662 88.331 359.662 82.514"></polyline>
            <polyline id="Fill-45" fill="#000000" points="364.133 81.195 369.47 81.195 369.47 82.514 365.702 82.514 365.702 84.043 369.16 84.043 369.16 85.263 365.702 85.263 365.702 87.012 369.55 87.012 369.55 88.331 364.133 88.331 364.133 81.195"></polyline>
            <polyline id="Fill-46" fill="#000000" points="370.693 81.195 372.252 81.195 375.23 85.982 375.25 85.982 375.25 81.195 376.72 81.195 376.72 88.331 375.15 88.331 372.182 83.554 372.162 83.554 372.162 88.331 370.693 88.331 370.693 81.195"></polyline>
            <polyline id="Fill-47" fill="#000000" points="378.183 81.195 383.52 81.195 383.52 82.514 379.752 82.514 379.752 84.043 383.21 84.043 383.21 85.263 379.752 85.263 379.752 87.012 383.6 87.012 383.6 88.331 378.183 88.331 378.183 81.195"></polyline>
            <path d="M386.312,87.012 L387.711,87.012 C388.621,87.012 389.49,86.452 389.49,84.873 C389.49,83.434 388.99,82.514 387.432,82.514 L386.312,82.514 L386.312,87.012 L386.312,87.012 Z M384.743,81.195 L387.821,81.195 C389.67,81.195 391.06,82.354 391.06,84.723 C391.06,86.792 390,88.331 387.821,88.331 L384.743,88.331 L384.743,81.195 L384.743,81.195 Z" id="Fill-48" fill="#000000"></path>
            <polyline id="Fill-49" fill="#000000" points="351.789 103.383 353.348 103.383 356.327 108.17 356.347 108.17 356.347 103.383 357.816 103.383 357.816 110.519 356.247 110.519 353.278 105.741 353.258 105.741 353.258 110.519 351.789 110.519 351.789 103.383"></polyline>
            <polyline id="Fill-50" fill="#000000" points="360.728 104.702 358.589 104.702 358.589 103.383 364.436 103.383 364.436 104.702 362.297 104.702 362.297 110.519 360.728 110.519 360.728 104.702"></polyline>
            <polyline id="Fill-51" fill="#000000" points="404.295 82.878 402.525 82.878 400.207 75.742 401.826 75.742 403.415 80.76 403.436 80.76 405.045 75.742 406.664 75.742 404.295 82.878"></polyline>
            <path d="M413.394,80.18 C413.394,82.108 412.254,83.048 410.346,83.048 C408.427,83.048 407.307,82.118 407.307,80.18 L407.307,75.742 L408.876,75.742 L408.876,80.18 C408.876,80.959 409.076,81.729 410.346,81.729 C411.465,81.729 411.824,81.238 411.824,80.18 L411.824,75.742 L413.394,75.742 L413.394,80.18" id="Fill-52" fill="#000000"></path>
            <polyline id="Fill-53" fill="#000000" points="414.773 75.742 416.343 75.742 416.343 81.559 419.821 81.559 419.821 82.878 414.773 82.878 414.773 75.742"></polyline>
            <polyline id="Fill-54" fill="#000000" points="420.423 75.742 421.982 75.742 424.961 80.529 424.98 80.529 424.98 75.742 426.449 75.742 426.449 82.878 424.881 82.878 421.912 78.101 421.893 78.101 421.893 82.878 420.423 82.878 420.423 75.742"></polyline>
            <polyline id="Fill-55" fill="#000000" points="427.859 75.742 433.196 75.742 433.196 77.061 429.429 77.061 429.429 78.59 432.887 78.59 432.887 79.81 429.429 79.81 429.429 81.559 433.276 81.559 433.276 82.878 427.859 82.878 427.859 75.742"></polyline>
            <path d="M435.969,78.97 L437.688,78.97 C438.388,78.97 438.768,78.67 438.768,77.951 C438.768,77.261 438.388,76.961 437.688,76.961 L435.969,76.961 L435.969,78.97 L435.969,78.97 Z M434.399,75.742 L438.247,75.742 C439.526,75.742 440.336,76.631 440.336,77.711 C440.336,78.55 439.996,79.18 439.207,79.5 L439.207,79.52 C439.977,79.72 440.196,80.469 440.246,81.189 C440.276,81.639 440.267,82.479 440.546,82.878 L438.978,82.878 C438.787,82.428 438.808,81.738 438.728,81.169 C438.617,80.42 438.327,80.09 437.538,80.09 L435.969,80.09 L435.969,82.878 L434.399,82.878 L434.399,75.742 L434.399,75.742 Z" id="Fill-56" fill="#000000"></path>
            <path d="M443.478,80.119 L445.327,80.119 L444.428,77.501 L444.407,77.501 L443.478,80.119 L443.478,80.119 Z M443.628,75.742 L445.237,75.742 L447.905,82.878 L446.276,82.878 L445.736,81.289 L443.068,81.289 L442.509,82.878 L440.919,82.878 L443.628,75.742 L443.628,75.742 Z" id="Fill-57" fill="#000000"></path>
            <path d="M450.158,81.658 L451.837,81.658 C452.457,81.658 452.997,81.459 452.997,80.719 C452.997,79.99 452.537,79.7 451.867,79.7 L450.158,79.7 L450.158,81.658 L450.158,81.658 Z M450.158,78.63 L451.747,78.63 C452.297,78.63 452.707,78.38 452.707,77.781 C452.707,77.101 452.188,76.961 451.627,76.961 L450.158,76.961 L450.158,78.63 L450.158,78.63 Z M448.589,75.742 L451.947,75.742 C453.307,75.742 454.226,76.182 454.226,77.511 C454.226,78.211 453.876,78.7 453.257,79 C454.126,79.25 454.565,79.919 454.565,80.809 C454.565,82.258 453.336,82.878 452.047,82.878 L448.589,82.878 L448.589,75.742 L448.589,75.742 Z" id="Fill-58" fill="#000000"></path>
            <polyline id="Fill-59" fill="#000000" points="455.594 75.742 457.163 75.742 457.163 81.559 460.642 81.559 460.642 82.878 455.594 82.878 455.594 75.742"></polyline>
            <polyline id="Fill-60" fill="#000000" points="461.243 75.742 466.58 75.742 466.58 77.061 462.813 77.061 462.813 78.59 466.271 78.59 466.271 79.81 462.813 79.81 462.813 81.559 466.66 81.559 466.66 82.878 461.243 82.878 461.243 75.742"></polyline>
            <polyline id="Fill-61" fill="#000000" points="430.779 110.487 429.01 110.487 426.691 103.352 428.311 103.352 429.899 108.368 429.92 108.368 431.529 103.352 433.148 103.352 430.779 110.487"></polyline>
            <path d="M439.878,107.789 C439.878,109.718 438.738,110.657 436.83,110.657 C434.911,110.657 433.791,109.728 433.791,107.789 L433.791,103.352 L435.36,103.352 L435.36,107.789 C435.36,108.568 435.561,109.338 436.83,109.338 C437.949,109.338 438.309,108.849 438.309,107.789 L438.309,103.352 L439.878,103.352 L439.878,107.789" id="Fill-62" fill="#000000"></path>
            <polyline id="Fill-63" fill="#000000" points="477.883 75.742 483.22 75.742 483.22 77.061 479.452 77.061 479.452 78.59 482.91 78.59 482.91 79.81 479.452 79.81 479.452 81.559 483.3 81.559 483.3 82.878 477.883 82.878 477.883 75.742"></polyline>
            <polyline id="Fill-64" fill="#000000" points="484.442 75.742 486.002 75.742 488.98 80.529 489 80.529 489 75.742 490.469 75.742 490.469 82.878 488.9 82.878 485.932 78.101 485.912 78.101 485.912 82.878 484.442 82.878 484.442 75.742"></polyline>
            <path d="M493.444,81.559 L494.844,81.559 C495.753,81.559 496.623,80.999 496.623,79.42 C496.623,77.98 496.123,77.061 494.563,77.061 L493.444,77.061 L493.444,81.559 L493.444,81.559 Z M491.875,75.742 L494.953,75.742 C496.803,75.742 498.191,76.901 498.191,79.27 C498.191,81.339 497.132,82.878 494.953,82.878 L491.875,82.878 L491.875,75.742 L491.875,75.742 Z" id="Fill-65" fill="#000000"></path>
            <path d="M500.813,80.119 L502.663,80.119 L501.764,77.501 L501.743,77.501 L500.813,80.119 L500.813,80.119 Z M500.964,75.742 L502.573,75.742 L505.241,82.878 L503.612,82.878 L503.072,81.289 L500.404,81.289 L499.845,82.878 L498.255,82.878 L500.964,75.742 L500.964,75.742 Z" id="Fill-66" fill="#000000"></path>
            <polyline id="Fill-67" fill="#000000" points="505.914 75.742 507.474 75.742 510.452 80.529 510.472 80.529 510.472 75.742 511.941 75.742 511.941 82.878 510.372 82.878 507.403 78.101 507.384 78.101 507.384 82.878 505.914 82.878 505.914 75.742"></polyline>
            <path d="M518.531,82.068 C517.981,82.777 517.262,83.048 516.572,83.048 C514.363,83.048 513.064,81.398 513.064,79.34 C513.064,77.221 514.363,75.572 516.572,75.572 C518.031,75.572 519.411,76.472 519.581,78.09 L518.082,78.09 C517.901,77.301 517.313,76.891 516.572,76.891 C515.163,76.891 514.634,78.09 514.634,79.34 C514.634,80.529 515.163,81.729 516.572,81.729 C517.592,81.729 518.182,81.179 518.271,80.189 L516.692,80.189 L516.692,79.02 L519.69,79.02 L519.69,82.878 L518.691,82.878 L518.531,82.068" id="Fill-68" fill="#000000"></path>
            <polyline id="Fill-69" fill="#000000" points="521.014 75.742 526.351 75.742 526.351 77.061 522.583 77.061 522.583 78.59 526.041 78.59 526.041 79.81 522.583 79.81 522.583 81.559 526.431 81.559 526.431 82.878 521.014 82.878 521.014 75.742"></polyline>
            <path d="M529.113,78.97 L530.832,78.97 C531.532,78.97 531.912,78.67 531.912,77.951 C531.912,77.261 531.532,76.961 530.832,76.961 L529.113,76.961 L529.113,78.97 L529.113,78.97 Z M527.544,75.742 L531.392,75.742 C532.671,75.742 533.48,76.631 533.48,77.711 C533.48,78.55 533.141,79.18 532.352,79.5 L532.352,79.52 C533.121,79.72 533.341,80.469 533.391,81.189 C533.421,81.639 533.411,82.479 533.69,82.878 L532.122,82.878 C531.932,82.428 531.952,81.738 531.872,81.169 C531.762,80.42 531.472,80.09 530.683,80.09 L529.113,80.09 L529.113,82.878 L527.544,82.878 L527.544,75.742 L527.544,75.742 Z" id="Fill-70" fill="#000000"></path>
            <polyline id="Fill-71" fill="#000000" points="534.813 75.742 540.15 75.742 540.15 77.061 536.383 77.061 536.383 78.59 539.841 78.59 539.841 79.81 536.383 79.81 536.383 81.559 540.23 81.559 540.23 82.878 534.813 82.878 534.813 75.742"></polyline>
            <path d="M542.913,81.559 L544.313,81.559 C545.222,81.559 546.092,80.999 546.092,79.42 C546.092,77.98 545.592,77.061 544.032,77.061 L542.913,77.061 L542.913,81.559 L542.913,81.559 Z M541.344,75.742 L544.422,75.742 C546.271,75.742 547.66,76.901 547.66,79.27 C547.66,81.339 546.601,82.878 544.422,82.878 L541.344,82.878 L541.344,75.742 L541.344,75.742 Z" id="Fill-72" fill="#000000"></path>
            <polyline id="Fill-73" fill="#000000" points="506.313 103.352 511.649 103.352 511.649 104.671 507.882 104.671 507.882 106.199 511.34 106.199 511.34 107.419 507.882 107.419 507.882 109.168 511.729 109.168 511.729 110.487 506.313 110.487 506.313 103.352"></polyline>
            <polyline id="Fill-74" fill="#000000" points="512.872 103.352 514.432 103.352 517.41 108.139 517.43 108.139 517.43 103.352 518.898 103.352 518.898 110.487 517.33 110.487 514.361 105.71 514.342 105.71 514.342 110.487 512.872 110.487 512.872 103.352"></polyline>
            <polyline id="Fill-75" fill="#000000" points="649.531 70.187 654.868 70.187 654.868 71.506 651.101 71.506 651.101 73.036 654.559 73.036 654.559 74.255 651.101 74.255 651.101 76.004 654.948 76.004 654.948 77.323 649.531 77.323 649.531 70.187"></polyline>
            <polyline id="Fill-76" fill="#000000" points="657.96 73.585 655.661 70.187 657.48 70.187 658.88 72.466 660.329 70.187 662.048 70.187 659.759 73.595 662.248 77.323 660.379 77.323 658.819 74.854 657.23 77.323 655.462 77.323 657.96 73.585"></polyline>
            <polyline id="Fill-77" fill="#000000" points="664.47 71.506 662.331 71.506 662.331 70.187 668.178 70.187 668.178 71.506 666.039 71.506 666.039 77.323 664.47 77.323 664.47 71.506"></polyline>
            <polygon id="Fill-78" fill="#000000" points="668.95 77.323 670.52 77.323 670.52 70.187 668.95 70.187"></polygon>
            <polyline id="Fill-79" fill="#000000" points="672.109 70.187 673.669 70.187 676.647 74.975 676.667 74.975 676.667 70.187 678.137 70.187 678.137 77.323 676.567 77.323 673.599 72.546 673.579 72.546 673.579 77.323 672.109 77.323 672.109 70.187"></polyline>
            <path d="M684.277,72.586 C684.177,71.877 683.497,71.337 682.718,71.337 C681.309,71.337 680.779,72.536 680.779,73.785 C680.779,74.975 681.309,76.174 682.718,76.174 C683.678,76.174 684.217,75.514 684.337,74.575 L685.856,74.575 C685.696,76.354 684.467,77.493 682.718,77.493 C680.509,77.493 679.21,75.844 679.21,73.785 C679.21,71.666 680.509,70.017 682.718,70.017 C684.287,70.017 685.606,70.937 685.796,72.586 L684.277,72.586" id="Fill-80" fill="#000000"></path>
            <polyline id="Fill-81" fill="#000000" points="688.267 71.506 686.128 71.506 686.128 70.187 691.975 70.187 691.975 71.506 689.836 71.506 689.836 77.323 688.267 77.323 688.267 71.506"></polyline>
            <polygon id="Fill-82" fill="#000000" points="640.773 88.331 642.343 88.331 642.343 81.195 640.773 81.195"></polygon>
            <polyline id="Fill-83" fill="#000000" points="643.733 81.195 645.293 81.195 648.271 85.982 648.291 85.982 648.291 81.195 649.76 81.195 649.76 88.331 648.191 88.331 645.223 83.554 645.203 83.554 645.203 88.331 643.733 88.331 643.733 81.195"></polyline>
            <polyline id="Fill-84" fill="#000000" points="655.356 82.514 653.218 82.514 653.218 81.195 659.064 81.195 659.064 82.514 656.926 82.514 656.926 88.331 655.356 88.331 655.356 82.514"></polyline>
            <polyline id="Fill-85" fill="#000000" points="659.837 81.195 661.406 81.195 661.406 83.934 664.295 83.934 664.295 81.195 665.863 81.195 665.863 88.331 664.295 88.331 664.295 85.253 661.406 85.253 661.406 88.331 659.837 88.331 659.837 81.195"></polyline>
            <polyline id="Fill-86" fill="#000000" points="667.227 81.195 672.563 81.195 672.563 82.514 668.796 82.514 668.796 84.043 672.254 84.043 672.254 85.263 668.796 85.263 668.796 87.012 672.644 87.012 672.644 88.331 667.227 88.331 667.227 81.195"></polyline>
            <polyline id="Fill-87" fill="#000000" points="683.086 88.331 681.526 88.331 680.317 83.474 680.297 83.474 679.107 88.331 677.519 88.331 675.63 81.195 677.199 81.195 678.328 86.053 678.348 86.053 679.588 81.195 681.057 81.195 682.276 86.112 682.296 86.112 683.465 81.195 685.005 81.195 683.086 88.331"></polyline>
            <polygon id="Fill-88" fill="#000000" points="685.739 88.331 687.309 88.331 687.309 81.195 685.739 81.195"></polygon>
            <polyline id="Fill-89" fill="#000000" points="688.695 81.195 690.265 81.195 690.265 87.012 693.743 87.012 693.743 88.331 688.695 88.331 688.695 81.195"></polyline>
            <path d="M695.715,87.012 L697.114,87.012 C698.023,87.012 698.893,86.452 698.893,84.873 C698.893,83.434 698.394,82.514 696.834,82.514 L695.715,82.514 L695.715,87.012 L695.715,87.012 Z M694.146,81.195 L697.224,81.195 C699.073,81.195 700.462,82.354 700.462,84.723 C700.462,86.792 699.402,88.331 697.224,88.331 L694.146,88.331 L694.146,81.195 L694.146,81.195 Z" id="Fill-90" fill="#000000"></path>
            <polyline id="Fill-91" fill="#000000" points="663.148 103.383 668.485 103.383 668.485 104.702 664.718 104.702 664.718 106.231 668.176 106.231 668.176 107.45 664.718 107.45 664.718 109.199 668.565 109.199 668.565 110.519 663.148 110.519 663.148 103.383"></polyline>
            <polyline id="Fill-92" fill="#000000" points="676.535 110.519 674.976 110.519 673.767 105.661 673.746 105.661 672.557 110.519 670.968 110.519 669.079 103.383 670.648 103.383 671.777 108.24 671.797 108.24 673.037 103.383 674.506 103.383 675.726 108.3 675.745 108.3 676.914 103.383 678.454 103.383 676.535 110.519"></polyline>
            <polyline id="Fill-93" fill="#FFFFFF" points="718.203 75.703 723.54 75.703 723.54 77.022 719.772 77.022 719.772 78.551 723.23 78.551 723.23 79.77 719.772 79.77 719.772 81.52 723.62 81.52 723.62 82.839 718.203 82.839 718.203 75.703"></polyline>
            <polyline id="Fill-94" fill="#FFFFFF" points="726.632 79.101 724.333 75.703 726.152 75.703 727.552 77.981 729.001 75.703 730.72 75.703 728.431 79.111 730.92 82.839 729.051 82.839 727.491 80.37 725.902 82.839 724.134 82.839 726.632 79.101"></polyline>
            <polyline id="Fill-95" fill="#FFFFFF" points="733.142 77.022 731.003 77.022 731.003 75.703 736.85 75.703 736.85 77.022 734.711 77.022 734.711 82.839 733.142 82.839 733.142 77.022"></polyline>
            <polygon id="Fill-96" fill="#FFFFFF" points="737.643 82.839 739.212 82.839 739.212 75.703 737.643 75.703"></polygon>
            <polyline id="Fill-97" fill="#FFFFFF" points="740.563 75.703 742.122 75.703 745.101 80.49 745.12 80.49 745.12 75.703 746.59 75.703 746.59 82.839 745.021 82.839 742.052 78.062 742.032 78.062 742.032 82.839 740.563 82.839 740.563 75.703"></polyline>
            <path d="M752.7,78.102 C752.6,77.392 751.92,76.852 751.141,76.852 C749.731,76.852 749.202,78.051 749.202,79.301 C749.202,80.49 749.731,81.689 751.141,81.689 C752.101,81.689 752.64,81.029 752.76,80.09 L754.279,80.09 C754.119,81.869 752.89,83.009 751.141,83.009 C748.932,83.009 747.633,81.359 747.633,79.301 C747.633,77.182 748.932,75.533 751.141,75.533 C752.71,75.533 754.029,76.452 754.219,78.102 L752.7,78.102" id="Fill-98" fill="#FFFFFF"></path>
            <polyline id="Fill-99" fill="#FFFFFF" points="756.931 77.022 754.792 77.022 754.792 75.703 760.639 75.703 760.639 77.022 758.5 77.022 758.5 82.839 756.931 82.839 756.931 77.022"></polyline>
            <polyline id="Fill-100" fill="#000000" points="733.156 103.313 738.493 103.313 738.493 104.632 734.726 104.632 734.726 106.16 738.184 106.16 738.184 107.38 734.726 107.38 734.726 109.129 738.573 109.129 738.573 110.448 733.156 110.448 733.156 103.313"></polyline>
            <polyline id="Fill-101" fill="#000000" points="741.585 106.71 739.286 103.313 741.105 103.313 742.505 105.591 743.954 103.313 745.673 103.313 743.384 106.721 745.873 110.448 744.004 110.448 742.444 107.98 740.855 110.448 739.087 110.448 741.585 106.71"></polyline>
            <path d="M569.625,72.586 C569.524,71.877 568.845,71.337 568.065,71.337 C566.656,71.337 566.127,72.536 566.127,73.785 C566.127,74.975 566.656,76.174 568.065,76.174 C569.025,76.174 569.564,75.514 569.685,74.575 L571.204,74.575 C571.044,76.354 569.814,77.493 568.065,77.493 C565.856,77.493 564.558,75.844 564.558,73.785 C564.558,71.666 565.856,70.017 568.065,70.017 C569.635,70.017 570.954,70.937 571.144,72.586 L569.625,72.586" id="Fill-102" fill="#000000"></path>
            <path d="M573.816,73.416 L575.535,73.416 C576.235,73.416 576.615,73.116 576.615,72.396 C576.615,71.707 576.235,71.406 575.535,71.406 L573.816,71.406 L573.816,73.416 L573.816,73.416 Z M572.247,70.187 L576.095,70.187 C577.374,70.187 578.184,71.077 578.184,72.156 C578.184,72.996 577.844,73.625 577.055,73.945 L577.055,73.965 C577.824,74.165 578.044,74.915 578.094,75.634 C578.124,76.084 578.114,76.923 578.394,77.323 L576.825,77.323 C576.635,76.874 576.655,76.184 576.575,75.614 C576.465,74.865 576.175,74.535 575.386,74.535 L573.816,74.535 L573.816,77.323 L572.247,77.323 L572.247,70.187 L572.247,70.187 Z" id="Fill-103" fill="#000000"></path>
            <polygon id="Fill-104" fill="#000000" points="579.437 77.323 581.006 77.323 581.006 70.187 579.437 70.187"></polygon>
            <polyline id="Fill-105" fill="#000000" points="583.937 71.506 581.798 71.506 581.798 70.187 587.645 70.187 587.645 71.506 585.506 71.506 585.506 77.323 583.937 77.323 583.937 71.506"></polyline>
            <polygon id="Fill-106" fill="#000000" points="588.437 77.323 590.006 77.323 590.006 70.187 588.437 70.187"></polygon>
            <path d="M596.114,72.586 C596.014,71.877 595.334,71.337 594.555,71.337 C593.146,71.337 592.616,72.536 592.616,73.785 C592.616,74.975 593.146,76.174 594.555,76.174 C595.515,76.174 596.054,75.514 596.174,74.575 L597.693,74.575 C597.533,76.354 596.304,77.493 594.555,77.493 C592.346,77.493 591.047,75.844 591.047,73.785 C591.047,71.666 592.346,70.017 594.555,70.017 C596.124,70.017 597.443,70.937 597.633,72.586 L596.114,72.586" id="Fill-107" fill="#000000"></path>
            <path d="M600.385,74.565 L602.234,74.565 L601.335,71.946 L601.314,71.946 L600.385,74.565 L600.385,74.565 Z M600.535,70.187 L602.145,70.187 L604.813,77.323 L603.184,77.323 L602.644,75.734 L599.976,75.734 L599.416,77.323 L597.826,77.323 L600.535,70.187 L600.535,70.187 Z" id="Fill-108" fill="#000000"></path>
            <polyline id="Fill-109" fill="#000000" points="605.476 70.187 607.045 70.187 607.045 76.004 610.523 76.004 610.523 77.323 605.476 77.323 605.476 70.187"></polyline>
            <polyline id="Fill-110" fill="#000000" points="611.328 70.187 612.897 70.187 612.897 76.004 616.376 76.004 616.376 77.323 611.328 77.323 611.328 70.187"></polyline>
            <polyline id="Fill-111" fill="#000000" points="618.128 74.545 615.499 70.187 617.268 70.187 618.938 73.006 620.596 70.187 622.345 70.187 619.696 74.585 619.696 77.323 618.128 77.323 618.128 74.545"></polyline>
            <polyline id="Fill-112" fill="#000000" points="558.5 81.195 563.837 81.195 563.837 82.514 560.069 82.514 560.069 84.043 563.527 84.043 563.527 85.263 560.069 85.263 560.069 87.012 563.917 87.012 563.917 88.331 558.5 88.331 558.5 81.195"></polyline>
            <polyline id="Fill-113" fill="#000000" points="565.06 81.195 566.619 81.195 569.598 85.982 569.617 85.982 569.617 81.195 571.086 81.195 571.086 88.331 569.518 88.331 566.549 83.554 566.529 83.554 566.529 88.331 565.06 88.331 565.06 81.195"></polyline>
            <path d="M574.062,87.012 L575.461,87.012 C576.37,87.012 577.24,86.452 577.24,84.873 C577.24,83.434 576.74,82.514 575.181,82.514 L574.062,82.514 L574.062,87.012 L574.062,87.012 Z M572.492,81.195 L575.57,81.195 C577.42,81.195 578.809,82.354 578.809,84.723 C578.809,86.792 577.749,88.331 575.57,88.331 L572.492,88.331 L572.492,81.195 L572.492,81.195 Z" id="Fill-114" fill="#000000"></path>
            <path d="M581.431,85.572 L583.28,85.572 L582.381,82.954 L582.36,82.954 L581.431,85.572 L581.431,85.572 Z M581.581,81.195 L583.19,81.195 L585.858,88.331 L584.229,88.331 L583.689,86.742 L581.021,86.742 L580.462,88.331 L578.872,88.331 L581.581,81.195 L581.581,81.195 Z" id="Fill-115" fill="#000000"></path>
            <polyline id="Fill-116" fill="#000000" points="586.523 81.195 588.083 81.195 591.062 85.982 591.081 85.982 591.081 81.195 592.551 81.195 592.551 88.331 590.981 88.331 588.013 83.554 587.993 83.554 587.993 88.331 586.523 88.331 586.523 81.195"></polyline>
            <path d="M599.141,87.521 C598.591,88.23 597.871,88.501 597.182,88.501 C594.973,88.501 593.674,86.852 593.674,84.793 C593.674,82.674 594.973,81.025 597.182,81.025 C598.641,81.025 600.021,81.925 600.19,83.543 L598.691,83.543 C598.511,82.754 597.922,82.344 597.182,82.344 C595.772,82.344 595.243,83.543 595.243,84.793 C595.243,85.982 595.772,87.182 597.182,87.182 C598.201,87.182 598.791,86.632 598.881,85.643 L597.302,85.643 L597.302,84.473 L600.3,84.473 L600.3,88.331 L599.301,88.331 L599.141,87.521" id="Fill-117" fill="#000000"></path>
            <polyline id="Fill-118" fill="#000000" points="601.623 81.195 606.96 81.195 606.96 82.514 603.192 82.514 603.192 84.043 606.65 84.043 606.65 85.263 603.192 85.263 603.192 87.012 607.04 87.012 607.04 88.331 601.623 88.331 601.623 81.195"></polyline>
            <path d="M609.723,84.424 L611.441,84.424 C612.142,84.424 612.521,84.123 612.521,83.404 C612.521,82.715 612.142,82.414 611.441,82.414 L609.723,82.414 L609.723,84.424 L609.723,84.424 Z M608.153,81.195 L612.001,81.195 C613.28,81.195 614.09,82.084 614.09,83.164 C614.09,84.004 613.75,84.633 612.961,84.953 L612.961,84.973 C613.73,85.173 613.95,85.922 614,86.643 C614.03,87.092 614.021,87.932 614.3,88.331 L612.731,88.331 C612.541,87.881 612.562,87.191 612.481,86.622 C612.371,85.873 612.081,85.543 611.292,85.543 L609.723,85.543 L609.723,88.331 L608.153,88.331 L608.153,81.195 L608.153,81.195 Z" id="Fill-119" fill="#000000"></path>
            <polyline id="Fill-120" fill="#000000" points="615.423 81.195 620.76 81.195 620.76 82.514 616.992 82.514 616.992 84.043 620.45 84.043 620.45 85.263 616.992 85.263 616.992 87.012 620.84 87.012 620.84 88.331 615.423 88.331 615.423 81.195"></polyline>
            <path d="M623.522,87.012 L624.922,87.012 C625.831,87.012 626.701,86.452 626.701,84.873 C626.701,83.434 626.201,82.514 624.642,82.514 L623.522,82.514 L623.522,87.012 L623.522,87.012 Z M621.953,81.195 L625.031,81.195 C626.881,81.195 628.27,82.354 628.27,84.723 C628.27,86.792 627.21,88.331 625.031,88.331 L621.953,88.331 L621.953,81.195 L621.953,81.195 Z" id="Fill-121" fill="#000000"></path>
            <path d="M591.351,105.554 C591.251,104.846 590.572,104.307 589.794,104.307 C588.387,104.307 587.858,105.504 587.858,106.752 C587.858,107.939 588.387,109.137 589.794,109.137 C590.752,109.137 591.291,108.478 591.411,107.54 L592.928,107.54 C592.768,109.316 591.54,110.454 589.794,110.454 C587.589,110.454 586.291,108.808 586.291,106.752 C586.291,104.636 587.589,102.989 589.794,102.989 C591.36,102.989 592.678,103.907 592.867,105.554 L591.351,105.554" id="Fill-122" fill="#000000"></path>
            <path d="M595.546,106.382 L597.263,106.382 C597.961,106.382 598.341,106.083 598.341,105.364 C598.341,104.676 597.961,104.376 597.263,104.376 L595.546,104.376 L595.546,106.382 L595.546,106.382 Z M593.979,103.159 L597.821,103.159 C599.099,103.159 599.907,104.047 599.907,105.125 C599.907,105.963 599.568,106.592 598.779,106.911 L598.779,106.931 C599.548,107.131 599.768,107.879 599.817,108.598 C599.848,109.047 599.838,109.885 600.117,110.284 L598.55,110.284 C598.36,109.835 598.381,109.147 598.301,108.578 C598.19,107.829 597.901,107.5 597.113,107.5 L595.546,107.5 L595.546,110.284 L593.979,110.284 L593.979,103.159 L593.979,103.159 Z" id="Fill-123" fill="#000000"></path>
            <path d="M319.272,79.77 L319.272,0.543 L238.698,0.543 L238.698,0.577 C195.571,1.297 160.819,36.461 160.819,79.774 C160.819,123.531 196.292,159 240.042,159 C283.663,159 319.045,123.748 319.264,80.178 L319.272,80.178 L319.272,79.848 C319.272,79.823 319.274,79.799 319.274,79.774 C319.274,79.773 319.272,79.77 319.272,79.77" id="Fill-124" fill="#DA2A1C"></path>
            <path d="M292.516,29.976 L296.408,29.976 C297.755,29.976 299.081,30.585 299.081,32.125 C299.081,32.948 298.686,33.729 297.883,34.039 L297.883,34.061 C298.696,34.253 298.931,35.162 298.996,35.889 C299.017,36.209 299.049,37.333 299.316,37.61 L297.349,37.61 C297.178,37.353 297.146,36.605 297.124,36.392 C297.071,35.622 296.942,34.83 296.012,34.83 L294.504,34.83 L294.504,37.61 L292.516,37.61 L292.516,29.976 L292.516,29.976 Z M294.504,33.291 L296.173,33.291 C296.771,33.291 297.092,32.97 297.092,32.392 C297.092,31.826 296.643,31.569 296.087,31.569 L294.504,31.569 L294.504,33.291 L294.504,33.291 Z" id="Fill-125" fill="#FFFFFF"></path>
            <polyline id="Fill-126" fill="#FFFFFF" points="300.022 29.976 306.106 29.976 306.106 31.569 302.011 31.569 302.011 32.905 305.753 32.905 305.753 34.445 302.011 34.445 302.011 35.899 306.213 35.899 306.213 37.61 300.022 37.61 300.022 29.976"></polyline>
            <path d="M307.133,29.976 L310.416,29.976 C312.758,29.976 314.159,31.398 314.159,33.761 C314.159,36.263 312.736,37.61 310.416,37.61 L307.133,37.61 L307.133,29.976 L307.133,29.976 Z M309.123,35.899 L310.063,35.899 C311.571,35.867 312.17,35.279 312.17,33.75 C312.17,32.36 311.421,31.687 310.063,31.687 L309.123,31.687 L309.123,35.899 L309.123,35.899 Z" id="Fill-127" fill="#FFFFFF"></path>
            <polyline id="Fill-128" fill="#FFFFFF" points="292.516 38.395 294.504 38.395 294.504 44.319 298.065 44.319 298.065 46.029 292.516 46.029 292.516 38.395"></polyline>
            <polygon id="Fill-129" fill="#FFFFFF" points="298.622 46.029 300.61 46.029 300.61 38.395 298.622 38.395"></polygon>
            <path d="M303.113,43.463 C303.155,44.361 303.711,44.65 304.556,44.65 C305.155,44.65 305.775,44.437 305.775,43.87 C305.775,43.196 304.685,43.067 303.583,42.757 C302.492,42.447 301.348,41.956 301.348,40.555 C301.348,38.887 303.027,38.234 304.46,38.234 C305.979,38.234 307.507,38.972 307.518,40.694 L305.529,40.694 C305.562,39.999 304.909,39.774 304.3,39.774 C303.872,39.774 303.337,39.924 303.337,40.426 C303.337,41.015 304.438,41.122 305.55,41.432 C306.652,41.742 307.764,42.255 307.764,43.634 C307.764,45.57 306.117,46.19 304.438,46.19 C302.685,46.19 301.134,45.42 301.124,43.463 L303.113,43.463" id="Fill-130" fill="#FFFFFF"></path>
            <polyline id="Fill-131" fill="#FFFFFF" points="314.052 40.105 311.774 40.105 311.774 46.029 309.785 46.029 309.785 40.105 307.508 40.105 307.508 38.395 314.052 38.395 314.052 40.105"></polyline>
            <path d="M307.276,12.114 C305.743,13.595 305.414,15.739 306.54,16.905 C307.666,18.071 309.822,17.815 311.354,16.335 C312.887,14.855 313.216,12.71 312.09,11.545 C310.964,10.379 308.808,10.634 307.276,12.114" id="Fill-132" fill="#FFFFFF"></path>
            <path d="M306.049,19.311 C304.518,20.791 304.188,22.936 305.314,24.102 C306.441,25.268 308.596,25.013 310.127,23.532 C311.661,22.052 311.989,19.907 310.863,18.74 C309.738,17.575 307.583,17.831 306.049,19.311" id="Fill-133" fill="#FFFFFF"></path>
            <g id="Group-137" transform="translate(294.000000, 6.000000)" fill="#FFFFFF">
                <path d="M1.521,2.782 C-0.011,4.263 -0.34,6.407 0.786,7.574 C1.912,8.739 4.067,8.484 5.6,7.004 C7.131,5.523 7.461,3.378 6.335,2.212 C5.209,1.047 3.053,1.301 1.521,2.782" id="Fill-134"></path>
                <path d="M8.775,1.647 C7.243,3.127 6.913,5.271 8.039,6.437 C9.166,7.603 11.32,7.349 12.853,5.868 C14.385,4.388 14.715,2.242 13.588,1.077 C12.463,-0.089 10.308,0.167 8.775,1.647" id="Fill-136"></path>
            </g>
            <path d="M304.164,20.753 C304.164,24.082 301.464,26.782 298.134,26.782 C294.804,26.782 292.104,24.082 292.104,20.753 C292.104,17.423 294.804,14.723 298.134,14.723 C301.464,14.723 304.164,17.423 304.164,20.753" id="Fill-138" fill="#FFFFFF"></path>
            <path d="M290.159,17.142 C290.159,22.454 285.853,26.757 280.543,26.757 C275.233,26.757 270.929,22.454 270.929,17.142 C270.929,11.833 275.233,7.528 280.543,7.528 L290.171,7.528 L290.159,17.142" id="Fill-139" fill="#FFFFFF"></path>
            <path d="M290.264,38.222 C290.264,43.565 285.933,47.896 280.589,47.896 C275.247,47.896 270.915,43.565 270.915,38.222 C270.915,32.878 275.247,28.547 280.589,28.547 C285.933,28.547 290.264,32.878 290.264,38.222" id="Fill-140" fill="#FFFFFF"></path>
            <polygon id="Fill-141" fill="#D61D17" points="276.276 39.241 276.704 39.241 276.704 37.293 276.276 37.293"></polygon>
            <path d="M277.848,39.285 C277.584,39.285 277.38,39.221 277.235,39.094 C277.09,38.966 277.018,38.77 277.018,38.504 L277.018,37.293 L277.446,37.293 L277.446,38.504 C277.446,38.557 277.451,38.609 277.46,38.66 C277.469,38.711 277.488,38.756 277.518,38.795 C277.546,38.834 277.587,38.866 277.639,38.89 C277.69,38.915 277.76,38.927 277.848,38.927 C278,38.927 278.106,38.893 278.164,38.825 C278.222,38.757 278.251,38.65 278.251,38.504 L278.251,37.293 L278.68,37.293 L278.68,38.504 C278.68,38.768 278.606,38.964 278.458,39.092 C278.312,39.221 278.107,39.285 277.848,39.285 Z" id="Fill-142" fill="#D61D17"></path>
            <path d="M280.147,37.705 C280.109,37.674 280.066,37.65 280.018,37.633 C279.97,37.615 279.919,37.606 279.867,37.606 C279.77,37.606 279.688,37.625 279.621,37.663 C279.554,37.7 279.499,37.75 279.458,37.812 C279.416,37.875 279.385,37.947 279.366,38.027 C279.347,38.107 279.337,38.189 279.337,38.275 C279.337,38.357 279.347,38.437 279.366,38.514 C279.385,38.591 279.416,38.661 279.458,38.723 C279.499,38.784 279.554,38.834 279.621,38.871 C279.688,38.908 279.77,38.927 279.867,38.927 C279.998,38.927 280.1,38.887 280.174,38.807 C280.247,38.727 280.292,38.622 280.309,38.491 L280.723,38.491 C280.712,38.612 280.684,38.723 280.639,38.821 C280.593,38.919 280.533,39.003 280.459,39.072 C280.384,39.141 280.297,39.194 280.197,39.23 C280.097,39.266 279.987,39.285 279.867,39.285 C279.718,39.285 279.583,39.259 279.464,39.207 C279.345,39.155 279.245,39.084 279.163,38.993 C279.081,38.902 279.018,38.795 278.975,38.672 C278.931,38.549 278.909,38.417 278.909,38.275 C278.909,38.129 278.931,37.995 278.975,37.87 C279.018,37.745 279.081,37.637 279.163,37.544 C279.245,37.451 279.345,37.378 279.464,37.326 C279.583,37.272 279.718,37.247 279.867,37.247 C279.974,37.247 280.075,37.262 280.171,37.293 C280.267,37.324 280.352,37.369 280.427,37.428 C280.503,37.487 280.565,37.56 280.614,37.647 C280.663,37.735 280.694,37.835 280.707,37.948 L280.292,37.948 C280.285,37.898 280.269,37.854 280.243,37.812 C280.218,37.771 280.186,37.736 280.147,37.705 Z" id="Fill-143" fill="#D61D17"></path>
            <polygon id="Fill-144" fill="#D61D17" points="282.199 38.6 282.205 38.6 282.205 37.293 282.606 37.293 282.606 39.241 282.178 39.241 281.367 37.937 281.362 37.937 281.362 39.241 280.961 39.241 280.961 37.293 281.386 37.293"></polygon>
            <path d="M280.247,40.421 C279.683,40.985 278.906,41.333 278.045,41.333 C277.184,41.333 276.408,40.985 275.843,40.421 C275.279,39.857 274.931,39.08 274.931,38.219 C274.931,37.359 275.279,36.582 275.843,36.018 C276.408,35.454 277.184,35.105 278.045,35.105 C278.906,35.105 279.683,35.454 280.247,36.018 C280.313,36.083 280.374,36.15 280.433,36.221 L281.704,36.221 C280.997,34.925 279.622,34.047 278.042,34.046 C275.739,34.047 273.872,35.914 273.872,38.217 C273.872,40.52 275.739,42.387 278.042,42.387 C279.584,42.387 280.931,41.55 281.652,40.306 L280.356,40.306 C280.321,40.345 280.284,40.384 280.247,40.421 Z" id="Fill-145" fill="#D61D17"></path>
            <path d="M314.947,31.61 C314.345,31.61 313.917,31.16 313.917,30.563 C313.917,29.934 314.393,29.516 314.947,29.516 C315.496,29.516 315.972,29.934 315.972,30.563 C315.972,31.193 315.496,31.61 314.947,31.61 L314.947,31.61 Z M314.947,29.698 C314.494,29.698 314.141,30.054 314.141,30.563 C314.141,31.04 314.449,31.429 314.947,31.429 C315.396,31.429 315.748,31.076 315.748,30.563 C315.748,30.054 315.396,29.698 314.947,29.698 L314.947,29.698 Z M315.477,30.765 C315.429,31.031 315.227,31.196 314.981,31.196 C314.623,31.196 314.387,30.925 314.387,30.563 C314.387,30.225 314.611,29.964 314.976,29.962 C315.23,29.962 315.438,30.11 315.474,30.384 L315.283,30.384 C315.255,30.241 315.135,30.144 314.976,30.144 C314.74,30.144 314.611,30.331 314.611,30.563 C314.611,30.807 314.754,31.014 314.981,31.014 C315.146,31.014 315.264,30.911 315.283,30.765 L315.477,30.765 L315.477,30.765 Z" id="Fill-146" fill="#FFFFFF"></path>
            <polyline id="Fill-147" fill="#FFFFFF" points="215.331 64.728 217.918 64.728 217.918 74.32 223.652 74.32 223.652 76.495 215.331 76.495 215.331 64.728"></polyline>
            <polyline id="Fill-148" fill="#FFFFFF" points="224.969 64.728 233.769 64.728 233.769 66.904 227.556 66.904 227.556 69.425 233.258 69.425 233.258 71.436 227.556 71.436 227.556 74.32 233.9 74.32 233.9 76.495 224.969 76.495 224.969 64.728"></polyline>
            <path d="M238.969,71.947 L242.018,71.947 L240.534,67.629 L240.501,67.629 L238.969,71.947 L238.969,71.947 Z M239.216,64.728 L241.869,64.728 L246.269,76.495 L243.583,76.495 L242.693,73.875 L238.293,73.875 L237.37,76.495 L234.75,76.495 L239.216,64.728 L239.216,64.728 Z" id="Fill-149" fill="#FFFFFF"></path>
            <path d="M249.019,72.589 C249.019,74.155 250.238,74.765 251.622,74.765 C252.529,74.765 253.913,74.501 253.913,73.298 C253.913,72.029 252.149,71.815 250.419,71.353 C248.672,70.892 246.909,70.216 246.909,68.008 C246.909,65.602 249.184,64.449 251.309,64.449 C253.765,64.449 256.022,65.52 256.022,68.239 L253.518,68.239 C253.435,66.822 252.43,66.459 251.194,66.459 C250.37,66.459 249.414,66.805 249.414,67.794 C249.414,68.7 249.975,68.815 252.924,69.574 C253.781,69.788 256.418,70.332 256.418,73.002 C256.418,75.16 254.721,76.775 251.523,76.775 C248.92,76.775 246.48,75.49 246.514,72.589 L249.019,72.589" id="Fill-150" fill="#FFFFFF"></path>
            <polyline id="Fill-151" fill="#FFFFFF" points="260.519 66.904 256.992 66.904 256.992 64.728 266.633 64.728 266.633 66.904 263.106 66.904 263.106 76.495 260.519 76.495 260.519 66.904"></polyline>
            <path d="M207.354,86.16 C207.189,84.99 206.069,84.101 204.784,84.101 C202.46,84.101 201.586,86.078 201.586,88.138 C201.586,90.1 202.46,92.076 204.784,92.076 C206.366,92.076 207.255,90.988 207.453,89.439 L209.958,89.439 C209.694,92.373 207.667,94.252 204.784,94.252 C201.142,94.252 198.999,91.533 198.999,88.138 C198.999,84.645 201.142,81.926 204.784,81.926 C207.371,81.926 209.546,83.441 209.859,86.16 L207.354,86.16" id="Fill-152" fill="#FFFFFF"></path>
            <path d="M216.959,92.076 C219.283,92.076 220.156,90.1 220.156,88.138 C220.156,86.078 219.283,84.101 216.959,84.101 C214.636,84.101 213.762,86.078 213.762,88.138 C213.762,90.1 214.636,92.076 216.959,92.076 L216.959,92.076 Z M216.959,81.926 C220.602,81.926 222.744,84.645 222.744,88.138 C222.744,91.533 220.602,94.252 216.959,94.252 C213.317,94.252 211.175,91.533 211.175,88.138 C211.175,84.645 213.317,81.926 216.959,81.926 L216.959,81.926 Z" id="Fill-153" fill="#FFFFFF"></path>
            <polyline id="Fill-154" fill="#FFFFFF" points="224.471 82.205 227.042 82.205 231.953 90.1 231.986 90.1 231.986 82.205 234.408 82.205 234.408 93.972 231.821 93.972 226.927 86.095 226.894 86.095 226.894 93.972 224.471 93.972 224.471 82.205"></polyline>
            <path d="M244.491,86.16 C244.326,84.99 243.206,84.101 241.92,84.101 C239.597,84.101 238.723,86.078 238.723,88.138 C238.723,90.1 239.597,92.076 241.92,92.076 C243.502,92.076 244.392,90.988 244.59,89.439 L247.095,89.439 C246.831,92.373 244.804,94.252 241.92,94.252 C238.278,94.252 236.136,91.533 236.136,88.138 C236.136,84.645 238.278,81.926 241.92,81.926 C244.508,81.926 246.683,83.441 246.996,86.16 L244.491,86.16" id="Fill-155" fill="#FFFFFF"></path>
            <polyline id="Fill-156" fill="#FFFFFF" points="248.909 82.205 257.708 82.205 257.708 84.381 251.496 84.381 251.496 86.902 257.198 86.902 257.198 88.912 251.496 88.912 251.496 91.797 257.84 91.797 257.84 93.972 248.909 93.972 248.909 82.205"></polyline>
            <path d="M262.304,87.528 L265.139,87.528 C266.292,87.528 266.918,87.033 266.918,85.848 C266.918,84.71 266.292,84.216 265.139,84.216 L262.304,84.216 L262.304,87.528 L262.304,87.528 Z M259.717,82.205 L266.062,82.205 C268.171,82.205 269.505,83.672 269.505,85.451 C269.505,86.836 268.945,87.874 267.644,88.401 L267.644,88.435 C268.912,88.764 269.275,90 269.357,91.187 C269.407,91.928 269.39,93.313 269.852,93.972 L267.264,93.972 C266.951,93.23 266.984,92.093 266.853,91.154 C266.671,89.918 266.193,89.374 264.891,89.374 L262.304,89.374 L262.304,93.972 L259.717,93.972 L259.717,82.205 L259.717,82.205 Z" id="Fill-157" fill="#FFFFFF"></path>
            <polyline id="Fill-158" fill="#FFFFFF" points="271.635 82.205 274.206 82.205 279.117 90.1 279.15 90.1 279.15 82.205 281.572 82.205 281.572 93.972 278.985 93.972 274.091 86.095 274.058 86.095 274.058 93.972 271.635 93.972 271.635 82.205"></polyline>
            <polyline id="Fill-159" fill="#FFFFFF" points="234.75 103.039 236.319 103.039 236.319 108.856 239.797 108.856 239.797 110.175 234.75 110.175 234.75 103.039"></polyline>
            <path d="M245.057,105.438 C244.958,104.728 244.278,104.188 243.498,104.188 C242.089,104.188 241.559,105.388 241.559,106.637 C241.559,107.826 242.089,109.025 243.498,109.025 C244.458,109.025 244.998,108.366 245.117,107.427 L246.637,107.427 C246.477,109.205 245.247,110.345 243.498,110.345 C241.29,110.345 239.99,108.695 239.99,106.637 C239.99,104.518 241.29,102.869 243.498,102.869 C245.067,102.869 246.387,103.788 246.577,105.438 L245.057,105.438" id="Fill-160" fill="#FFFFFF"></path>
            <polyline id="Fill-161" fill="#FFFFFF" points="301.961 71.126 309.599 78.61 301.961 86.098 305.582 86.098 313.232 78.61 305.574 71.126 301.961 71.126"></polyline>
        </g>
    </g>
</svg>
